<svg width="176" height="28" viewBox="0 0 176 28" fill="none" xmlns="http://www.w3.org/2000/svg">
<path d="M15.5181 15.6018H5.0318V23.4578H17.2892V27H0.595279V1.46807H17.1665V5.04535H5.0318V12.0947H15.5181V15.6018ZM24.4438 8.02641L24.5665 10.2184C25.9694 8.52325 27.8106 7.6757 30.0903 7.6757C34.0416 7.6757 36.0524 9.9378 36.1225 14.462V27H31.8614V14.7075C31.8614 13.5034 31.5983 12.6149 31.0723 12.0421C30.5579 11.4576 29.7103 11.1653 28.5296 11.1653C26.8111 11.1653 25.531 11.9427 24.6893 13.4975V27H20.4281V8.02641H24.4438ZM44.6799 10.0956C46.0711 8.48234 47.8305 7.6757 49.9582 7.6757C54.0031 7.6757 56.0547 9.98456 56.1132 14.6023V27H51.852V14.7601C51.852 13.4508 51.5656 12.5272 50.9928 11.9895C50.4316 11.44 49.6016 11.1653 48.5027 11.1653C46.7959 11.1653 45.5217 11.9252 44.6799 13.4449V27H40.4188V0.065217H44.6799V10.0956ZM71.7725 27C71.5855 26.6376 71.4218 26.0472 71.2815 25.2289C69.9255 26.6434 68.2654 27.3507 66.3014 27.3507C64.3959 27.3507 62.841 26.8071 61.6369 25.7199C60.4328 24.6327 59.8308 23.2883 59.8308 21.6867C59.8308 19.6642 60.5789 18.1153 62.0753 17.0397C63.5834 15.9525 65.7344 15.4089 68.5284 15.4089H71.1413V14.1639C71.1413 13.1819 70.8665 12.3986 70.3171 11.8141C69.7676 11.2179 68.9318 10.9198 67.8095 10.9198C66.8392 10.9198 66.0442 11.1653 65.4246 11.6563C64.805 12.1356 64.4952 12.7493 64.4952 13.4975H60.2341C60.2341 12.4571 60.5789 11.4868 61.2687 10.5866C61.9584 9.67476 62.8937 8.96164 64.0744 8.44727C65.2668 7.93289 66.5937 7.6757 68.055 7.6757C70.2762 7.6757 72.0473 8.23684 73.3683 9.35912C74.6893 10.4697 75.3674 12.0362 75.4024 14.0587V22.6161C75.4024 24.3229 75.6421 25.6848 76.1214 26.7019V27H71.7725ZM67.0905 23.9313C67.9322 23.9313 68.7213 23.7267 69.4578 23.3175C70.206 22.9083 70.7672 22.3589 71.1413 21.6692V18.0919H68.8441C67.2659 18.0919 66.0793 18.3666 65.2844 18.9161C64.4894 19.4655 64.0919 20.2429 64.0919 21.2483C64.0919 22.0666 64.3608 22.7213 64.8986 23.2123C65.448 23.6916 66.1787 23.9313 67.0905 23.9313ZM83.8196 8.02641L83.9423 10.2184C85.3452 8.52325 87.1864 7.6757 89.466 7.6757C93.4174 7.6757 95.4282 9.9378 95.4983 14.462V27H91.2371V14.7075C91.2371 13.5034 90.9741 12.6149 90.448 12.0421C89.9337 11.4576 89.0861 11.1653 87.9054 11.1653C86.1869 11.1653 84.9068 11.9427 84.0651 13.4975V27H79.8039V8.02641H83.8196ZM107.651 23.9488C108.714 23.9488 109.597 23.639 110.298 23.0194C111 22.3998 111.374 21.6341 111.421 20.7222H115.436C115.39 21.903 115.021 23.0077 114.332 24.0365C113.642 25.0535 112.707 25.8602 111.526 26.4564C110.345 27.0526 109.071 27.3507 107.703 27.3507C105.049 27.3507 102.945 26.4915 101.39 24.773C99.8355 23.0545 99.058 20.6813 99.058 17.6535V17.2151C99.058 14.3276 99.8296 12.0187 101.373 10.2885C102.916 8.54663 105.02 7.6757 107.686 7.6757C109.942 7.6757 111.777 8.33621 113.192 9.65723C114.618 10.9666 115.366 12.6909 115.436 14.8302H111.421C111.374 13.743 111 12.8487 110.298 12.1473C109.609 11.4459 108.726 11.0952 107.651 11.0952C106.271 11.0952 105.207 11.5978 104.459 12.6032C103.711 13.5969 103.331 15.1108 103.319 17.145V17.8288C103.319 19.8864 103.687 21.4237 104.424 22.4407C105.172 23.4461 106.248 23.9488 107.651 23.9488ZM127.01 27.3507C124.309 27.3507 122.117 26.5032 120.434 24.808C118.762 23.1012 117.926 20.8333 117.926 18.0042V17.4781C117.926 15.5843 118.289 13.895 119.014 12.4103C119.75 10.9139 120.779 9.75075 122.1 8.92073C123.421 8.09071 124.894 7.6757 126.519 7.6757C129.102 7.6757 131.096 8.49987 132.499 10.1482C133.913 11.7966 134.62 14.1288 134.62 17.145V18.8635H122.223C122.351 20.43 122.871 21.6692 123.783 22.581C124.707 23.4929 125.864 23.9488 127.255 23.9488C129.208 23.9488 130.798 23.1597 132.025 21.5815L134.322 23.7734C133.562 24.9074 132.545 25.79 131.271 26.4213C130.008 27.0409 128.588 27.3507 127.01 27.3507ZM126.501 11.0952C125.332 11.0952 124.385 11.5043 123.661 12.3226C122.947 13.141 122.492 14.2808 122.293 15.7421H130.412V15.4265C130.318 14.0002 129.938 12.9247 129.272 12.1999C128.606 11.4634 127.682 11.0952 126.501 11.0952ZM161.59 21.0554H151.7L149.631 27H145.019L154.664 1.46807H158.644L168.306 27H163.677L161.59 21.0554ZM152.945 17.4781H160.345L156.645 6.88659L152.945 17.4781ZM175.899 27H171.48V1.46807H175.899V27Z" fill="url(#paint0_linear_3_90)"/>
<defs>
<linearGradient id="paint0_linear_3_90" x1="1.64742" y1="14.7622" x2="219.09" y2="14.7622" gradientUnits="userSpaceOnUse">
<stop stop-color="#785EFD"/>
<stop offset="1" stop-color="#2BAA93"/>
</linearGradient>
</defs>
</svg>
